<svg xmlns="http://www.w3.org/2000/svg" viewBox="0 0 56.39 40"><defs><style>.cls-1,.cls-2{fill:#e03627;}.cls-1{fill-rule:evenodd;}</style></defs><g id="レイヤー_2" data-name="レイヤー 2"><g id="レイヤー_1-2" data-name="レイヤー 1"><path class="cls-1" d="M13.11,19.78c3.15-1.36.59-7.52-2.6-4.39,1.42-3-2.55-5.6-5-3.19-1.73,2.92,2.67,4,1.6,6.19-1.63.29-.75-1.91-1.4-2.6-2-1.53-4.91-.09-5,1.6-.17,3.43,4.09,1.44,6.2,2.79-.13.55.25,1.59-.2,1.8-2.26-.5-4-3-6.19-.8C-.34,22.77.07,23.54.33,24c1.26,1.85,4.61,1.76,5-.8.25.42,1.2.13,1.4.6a7.08,7.08,0,0,0-.2,3.4c3.42,1.48.53-3.27,3-3.8.7.77,2.09.85,3.4,1a3.26,3.26,0,0,0,1.6-3.4A4.77,4.77,0,0,0,13.11,19.78ZM8.74,16.49a2.38,2.38,0,0,1,1.79-.6c.3,1.49-.79,1.6-1.39,2.2C8.22,18,9.2,16.63,8.74,16.49Zm.6,5.19c-1.08.05-.09-1.22-.4-2.2.91-.21,1.53-.73,2.39-1,0,.5.45.48.6.8A4.89,4.89,0,0,0,9.34,21.68Z"/><path class="cls-1" d="M25,25.18a1.81,1.81,0,0,1,.4-1.6,1.47,1.47,0,0,1,2.2,1.6A1.57,1.57,0,0,1,25,25.18Z"/><path class="cls-1" d="M29.69,16.39c-1.74-1.75-2.87-4.73-1.2-7.19C30.39,9.91,29.37,14.36,29.69,16.39Z"/><path class="cls-1" d="M12.11,11.4a7.21,7.21,0,0,0,3.37-.31c.65-.27.85-1.57.29-2.52C15,7.19,11.42,7.88,11.91,5.2c.19-.34.66-.4.8-.8,2.77.62,6,2.11,5.79,5a5.49,5.49,0,0,1-1.24,2.21C16.22,12.94,12.26,13.65,12.11,11.4Z"/><path class="cls-2" d="M48.06,32.93a23.84,23.84,0,0,1,2.39-.6c.06-1.25-2.07-.32-2.39-1.2.14-.72,1.06-.67,1.6-1a4.69,4.69,0,0,0,2,1.39,2.43,2.43,0,0,0-2.19-3.19c-.22.72-2,1.51-2.6.6.87-1.8,4.79-.54,5-3-2.22.11-4.83.89-6.79.6,1.65-.74,3.9-.71,4.4-2.2,1.21-3.67-8.87-4.54-10.19-1.6.38.49,1.16.57,1.6,1-.64,2.48-1.46,4.56-1.2,6.79.23,2,1,5.56,3.19,5-1.6-2.41-1.38-5.13-1.19-8.19,1-.41,1.74-1.06,3-.4-.81.46-2,.47-2.2,1.6.78.6,1.89-.28,2.6.2a1.74,1.74,0,0,0,0,2.59c.78,0,1.84-.24,1.6.8-.71,0-3.49-.47-3.4,1,.93.75,4-.68,4,1-1.83.29-3-.58-3.6,1.2,2.47.64,7,.39,8.19-2C50.43,32.94,48.42,34.13,48.06,32.93Zm-6-8c-.13-.79.52-.79.4-1.58,1.79.16,3.65-.9,5.59-.2.08.48-.37.43-.2,1C45.79,24.56,43.68,24.68,42.06,24.92Z"/><path class="cls-1" d="M6.12,29.37c.62,0,1.67-.89,2,0,.87,2.81.06,5.78,3.19,7.19,3.53,1.6,10.68,1.25,16.38,1,3.42-.15,7.39-.65,10-.77-.2-.72-1.38-2-1.85-3.22-1.6-.47-3.4.07-4.59-1.6.11-1.15,2.64-.65,3.19-1.6C34,23.81,36.58,19.16,42.07,18c-.11-3,.13-6-.2-8.39-.58-4.23-2.55-6.47-7-6.79a135.41,135.41,0,0,0-20.17.4c-1.57.15-4.86.92-5.4,1.39-1.48,1.31-.48,5.18-2.39,5.8-2.79-.84-1.43-4.89-.6-6.2C9.57-.94,24.2,0,31.89.21c5.23.15,9,1.23,11,4,1.91,3.45,1.48,8.5,1.4,13.59,5.76.05,11.14,3.8,12,9.19.54,3.47-.65,7.8-2.4,9.58l-1,1A5.66,5.66,0,0,1,50.26,39a14.29,14.29,0,0,1-5.39.6c-1.46-.08-3-.91-4.79-1s-3.9.6-6,.8a116.68,116.68,0,0,1-19,.4,14,14,0,0,1-7.79-3.6C6.65,34.29,5.28,32.09,6.12,29.37Zm30.76,3.4c.8,1.13,1.89,2,2.6,3.19,7.65,3.88,15.32.52,15-7.59-.22-5.12-5.71-10.38-11.79-9-4.44,1-7.42,5.43-6.59,10.79a23.83,23.83,0,0,1-2.4,1.8C34.59,32.65,35.92,32.6,36.88,32.77Z"/><path class="cls-1" d="M23.3,36c0-.76.81-.64,1.19-1-.13-.47-.15-.86-.39-1.6a6.43,6.43,0,0,0-2.4.2c-.24,1.37.43,1.83.8,2.59-.38.81-2.66.88-3,0s.93-.53.8-1.39a6.08,6.08,0,0,0,0-1.35c-4.75-1.37-8.81-3.89-10-8.84,1.81-.07,3.5.74,5.2.2s2.38-2.07,3.59-3c4.07-3.1,10.52-2.81,11.79,2.8.78.28,2.13,0,2.59.6a7.82,7.82,0,0,1-2.19,1.4c-.3,3.14-2.81,5.62-5.78,6.7a10.9,10.9,0,0,0,0,1.69c.13.8,1.55.31,1.2,1.59C25.76,36.67,23.77,36.9,23.3,36Zm1.59-4.39c1.65-.38,4.22-2.13,4.6-3.4,1.12-3.71-2.4-7.56-6-6.79-3.85.83-5.24,5.74-10,5.4C15,30.27,20.15,32.66,24.89,31.57Z"/><path class="cls-1" d="M22.5,18.39c-2.77-2-3.41-7.94-1.2-10.79h1c.93.82-.14,2,0,3.2.95,1.22,2.38.81,4,1.19a4,4,0,0,1-4.19,1.2C21.78,14.63,22.63,16.34,22.5,18.39Z"/><path class="cls-1" d="M33.88,19.59A8.55,8.55,0,0,1,31.69,16c-.68-2.51-.24-6.94,2.39-7,1.16,1.34-.56,2.52-.79,4-.42,2.58,1.54,4.69,1,6.6Z"/></g></g></svg>