<svg xmlns="http://www.w3.org/2000/svg" xmlns:xlink="http://www.w3.org/1999/xlink" width="24" height="24" viewBox="0 0 24 24">
  <defs>
    <clipPath id="clip-path">
      <rect id="長方形_152" data-name="長方形 152" width="16" height="16" transform="translate(216 79)" fill="#fff"/>
    </clipPath>
  </defs>
  <g id="インスタアイコン" transform="translate(0 0)">
    <path id="中マド_1" data-name="中マド 1" d="M590-1055a11.921,11.921,0,0,1-8.485-3.515A11.922,11.922,0,0,1,578-1067a11.921,11.921,0,0,1,3.515-8.485A11.921,11.921,0,0,1,590-1079a11.922,11.922,0,0,1,8.486,3.515A11.921,11.921,0,0,1,602-1067a11.922,11.922,0,0,1-3.515,8.486A11.922,11.922,0,0,1,590-1055Zm0-23.295A11.307,11.307,0,0,0,578.705-1067a11.22,11.22,0,0,0,3.308,7.986,11.22,11.22,0,0,0,7.986,3.308,11.22,11.22,0,0,0,7.986-3.308,11.22,11.22,0,0,0,3.308-7.986,11.22,11.22,0,0,0-3.308-7.986A11.22,11.22,0,0,0,590-1078.295Z" transform="translate(-578 1079)" fill="#fff"/>
    <g id="マスクグループ_1" data-name="マスクグループ 1" transform="translate(-212 -75)" clip-path="url(#clip-path)">
      <g id="アートワーク_12" data-name="アートワーク 12" transform="translate(224 87)">
        <g id="グループ_29" data-name="グループ 29" transform="translate(-7.226 -7.226)">
          <path id="パス_44" data-name="パス 44" d="M7.226,1.3c1.929,0,2.158.007,2.92.042a4,4,0,0,1,1.342.249,2.238,2.238,0,0,1,.831.541,2.238,2.238,0,0,1,.541.831,4,4,0,0,1,.249,1.342c.035.762.042.99.042,2.92s-.007,2.158-.042,2.92a4,4,0,0,1-.249,1.342,2.393,2.393,0,0,1-1.371,1.371,4,4,0,0,1-1.342.249c-.762.035-.99.042-2.92.042s-2.158-.007-2.92-.042a4,4,0,0,1-1.342-.249,2.238,2.238,0,0,1-.831-.541,2.239,2.239,0,0,1-.541-.831,4,4,0,0,1-.249-1.342c-.035-.762-.042-.99-.042-2.92s.007-2.158.042-2.92a4,4,0,0,1,.249-1.342,2.238,2.238,0,0,1,.541-.831,2.238,2.238,0,0,1,.831-.541,4,4,0,0,1,1.342-.249c.762-.035.99-.042,2.92-.042m0-1.3C5.263,0,5.017.008,4.246.043A5.3,5.3,0,0,0,2.493.379a3.542,3.542,0,0,0-1.28.833,3.542,3.542,0,0,0-.833,1.28A5.3,5.3,0,0,0,.043,4.246C.008,5.017,0,5.263,0,7.226S.008,9.434.043,10.2a5.3,5.3,0,0,0,.336,1.754,3.542,3.542,0,0,0,.833,1.28,3.542,3.542,0,0,0,1.28.833,5.3,5.3,0,0,0,1.754.336c.771.035,1.017.043,2.979.043s2.208-.008,2.979-.043a5.3,5.3,0,0,0,1.754-.336,3.695,3.695,0,0,0,2.113-2.113,5.3,5.3,0,0,0,.336-1.754c.035-.771.043-1.017.043-2.979s-.008-2.208-.043-2.979a5.3,5.3,0,0,0-.336-1.754,3.542,3.542,0,0,0-.833-1.28,3.542,3.542,0,0,0-1.28-.833A5.3,5.3,0,0,0,10.2.043C9.434.008,9.188,0,7.226,0Z" transform="translate(0 0)" fill="#fff"/>
          <path id="パス_45" data-name="パス 45" d="M126.266,122.556a3.71,3.71,0,1,0,3.71,3.71A3.71,3.71,0,0,0,126.266,122.556Zm0,6.119a2.409,2.409,0,1,1,2.409-2.409A2.409,2.409,0,0,1,126.266,128.675Z" transform="translate(-119.041 -119.041)" fill="#fff"/>
          <circle id="楕円形_7" data-name="楕円形 7" cx="0.867" cy="0.867" r="0.867" transform="translate(10.216 2.501)" fill="#fff"/>
        </g>
      </g>
    </g>
  </g>
</svg>
