<svg id="タイトル" xmlns="http://www.w3.org/2000/svg" xmlns:xlink="http://www.w3.org/1999/xlink" width="147" height="42" viewBox="0 0 147 42">
  <defs>
    <clipPath id="clip-path">
      <rect id="長方形_177" data-name="長方形 177" width="51.513" height="21.224" transform="translate(0 0)" fill="none"/>
    </clipPath>
  </defs>
  <text id="でざいん工房コトリ屋" transform="translate(0 40)" fill="#3f3b3a" font-size="16" font-family="YuMin-Medium, YuMincho" font-weight="500" letter-spacing="-0.08em"><tspan x="0" y="0">でざいん工房</tspan><tspan y="0" letter-spacing="-0.1em">コトリ屋</tspan></text>
  <g id="グループ_73" data-name="グループ 73" transform="translate(48 0)">
    <g id="グループ_72" data-name="グループ 72" clip-path="url(#clip-path)">
      <path id="パス_121" data-name="パス 121" d="M2.895,13c-.007-.047-.032-.08-.039-.126a.474.474,0,0,1,.187-.479c.07-.05.334-.2.437-.054a.252.252,0,0,1,.01.162,5.788,5.788,0,0,0,.9,2.472.376.376,0,0,1,.122.1s-.011.056.092.294a5.222,5.222,0,0,0,.652,1.017c.124.167.259.255.381.167.138-.1.265-.4.393-1.059a.576.576,0,0,1,.2-.355.086.086,0,0,1,.134.027,2.032,2.032,0,0,1-.594,1.856.619.619,0,0,1-.913-.18,2.539,2.539,0,0,1-.213-.308,4.37,4.37,0,0,1-1.317,2.518,1.577,1.577,0,0,1-2.362.066,3.829,3.829,0,0,1,.435-5.5,2.676,2.676,0,0,1,1.413-.615l.077,0m.118.377a1.05,1.05,0,0,1-.313.078,2.208,2.208,0,0,0-1.07.482,3.3,3.3,0,0,0-.249,4.68,1.14,1.14,0,0,0,1.749.094,3.984,3.984,0,0,0,1.12-2.8,17.429,17.429,0,0,1-1.237-2.537"/>
      <path id="パス_122" data-name="パス 122" d="M7.459,14.094C6.916,13.16,5.6,9.13,4.677,7.517a3.06,3.06,0,0,0-.234-.361c-.125-.156-.6.127-.785.009-.007-.012-.041-.024-.055-.047-.057-.1-.026-.279.407-.528.764-.44,1.021-.017,1.193.3a36.936,36.936,0,0,1,1.6,4.1,3.623,3.623,0,0,1,1.818-1.92c.973-.469,2.27-.524,2.836.862a3.633,3.633,0,0,1-1.7,4.6,1.589,1.589,0,0,1-2.292-.433l-.007-.012m.508-.349a1.174,1.174,0,0,0,1.706.4,3.085,3.085,0,0,0,1.218-3.912,1.445,1.445,0,0,0-2.156-.784,3.152,3.152,0,0,0-1.62,1.926.836.836,0,0,1-.065.259,18.875,18.875,0,0,0,.917,2.111"/>
      <path id="パス_123" data-name="パス 123" d="M18.925,8.419a2.977,2.977,0,0,1-2.372,3.417A2.375,2.375,0,0,1,13.5,10.4a3.218,3.218,0,0,1,2.476-3.971c1.115-.273,1.906.092,1.975.446a.152.152,0,0,1,0,.1,1.732,1.732,0,0,1,.974,1.44m-1.3-1.107c-.08.016-.341.043-.382-.146-.021-.095.081-.2.057-.211a1.282,1.282,0,0,0-1.216-.162,2.855,2.855,0,0,0-2.017,3.433,1.862,1.862,0,0,0,2.413,1.213,2.49,2.49,0,0,0,1.892-2.906,2.249,2.249,0,0,0-.62-1.2.064.064,0,0,1-.032-.051.242.242,0,0,1-.095.034"/>
      <path id="パス_124" data-name="パス 124" d="M22.338,10.743c-.5.041-.86-.308-.936-1.01,0-.028-.008-.069-.012-.11-.036-.679.26-2.352.271-3.131-.006-.056-.011-.111-.014-.152-.025-.262-.119-.379-.261-.365-.2.02-.525.318-.853.79-.225.307-.423.474-.541.491a.108.108,0,0,1-.136-.107,2.23,2.23,0,0,1,1.609-1.641.733.733,0,0,1,.844.721l.008.111c-.028,1-.325,2.125-.326,3.14.007.069.012.124.018.193.036.4.183.622.436.6.541-.043,1.463-1.12,3.164-3.6.217-1.105.289-1.285.725-1.27.165.005.308.067.3.206,0,.014-.023.04-.024.068a11.526,11.526,0,0,0-.831,4.075c-.007.3.1.459.3.465a2.337,2.337,0,0,0,1.246-.728A.453.453,0,0,1,27.59,9.4c.074.005.11.036.1.091A2.377,2.377,0,0,1,25.9,10.7a.692.692,0,0,1-.727-.745,14.948,14.948,0,0,1,.263-2.38c-1.215,2.119-2.318,3.105-3.1,3.17"/>
      <path id="パス_125" data-name="パス 125" d="M30.688,6.042c.764.059,1.351.074,1.5.075a.579.579,0,0,1,.144.013c.225.044.33.151.31.246-.033.163-.073.2-2.095.051a26.812,26.812,0,0,0-.99,3.623c-.045.329.1.5.33.536a1.854,1.854,0,0,0,1.219-.528.833.833,0,0,1,.525-.169A.085.085,0,0,1,31.7,10a2.261,2.261,0,0,1-2.025,1.015.8.8,0,0,1-.713-.959,29.831,29.831,0,0,1,.95-3.679c-.164-.007-.326-.028-.487-.047-.263-.031-.869-.106-.848-.327.009-.1.183-.178.428-.152l.062.006c.224.039.469.067.694.1l.265.034c.031-.08.363-1.265.388-1.443.019-.138-.048-.2-.246-.257-.121-.038-.263-.159-.249-.269.017-.138.207-.254.488-.216.129.018.81.188.719.763a1.166,1.166,0,0,1-.062.257c-.154.486-.23.73-.379,1.217"/>
      <path id="パス_126" data-name="パス 126" d="M38.925,13.734c-.46-.217-.6-.7-.32-1.349l.045-.1c.309-.606,1.409-1.9,1.809-2.574.023-.05.048-.1.064-.138.11-.239.086-.388-.047-.448a1.769,1.769,0,0,0-1.148.253,1.2,1.2,0,0,1-.722.152.107.107,0,0,1-.065-.16A2.248,2.248,0,0,1,40.78,8.76a.74.74,0,0,1,.384,1.053c-.011.025-.03.062-.047.1-.527.853-1.354,1.673-1.865,2.552-.029.062-.051.113-.081.175-.169.365-.15.632.083.744.5.238,1.857-.227,4.619-1.49.748-.843.9-.962,1.286-.721.143.091.241.219.167.336-.009.012-.041.024-.055.047a11.122,11.122,0,0,0-2.791,3.091c-.159.26-.141.448.032.558a2.456,2.456,0,0,0,1.481.023.483.483,0,0,1,.285.061q.1.066.048.135a2.456,2.456,0,0,1-2.211.1.705.705,0,0,1-.275-1.022,14.672,14.672,0,0,1,1.431-1.923c-2.149,1.2-3.622,1.493-4.346,1.151"/>
      <path id="パス_127" data-name="パス 127" d="M50.315,16.682l.038-.04c.156-.1.4-.1.484-.189.106-.11-.108-.493-.56-.907-1.035-.946-2.969-1.616-3.4-1.043-.151.2-.111.559.252,1.148.349.568,1.037,1.4,1.325,1.865.509.86.492,1.364.258,1.6-.524.533-1.709.037-2.764-.85-.766-.644-1.344-1.4-1.071-1.768a.676.676,0,0,1,.711-.174c.061.047.067.1.007.181a.245.245,0,0,1-.082.076.264.264,0,0,0-.084.075c-.228.3.19.845.745,1.311.863.725,1.8,1,2.1.687.143-.151.112-.471-.247-1.058-.273-.447-.9-1.2-1.274-1.768-.527-.815-.62-1.364-.374-1.7.525-.715,2.68-.236,4.245,1.2.311.285,1.157,1.109.814,1.453a1.112,1.112,0,0,1-1.107.04c-.037-.055-.049-.1-.011-.145"/>
    </g>
  </g>
</svg>
