<svg xmlns="http://www.w3.org/2000/svg" xmlns:xlink="http://www.w3.org/1999/xlink" width="50.952" height="36.143" viewBox="0 0 50.952 36.143">
  <defs>
    <clipPath id="clip-path">
      <rect id="長方形_194" data-name="長方形 194" width="50.952" height="36.143" transform="translate(0 0)" fill="#fff"/>
    </clipPath>
  </defs>
  <g id="グループ_126" data-name="グループ 126" transform="translate(0 0)" clip-path="url(#clip-path)">
    <path id="パス_205" data-name="パス 205" d="M11.846,17.876c2.843-1.229.535-6.8-2.346-3.971,1.281-2.745-2.3-5.055-4.513-2.886C3.42,13.665,7.4,14.609,6.431,16.612c-1.466.264-.679-1.726-1.263-2.345C3.389,12.886.735,14.185.655,15.71c-.159,3.1,3.691,1.308,5.6,2.527-.111.49.23,1.433-.18,1.625-2.043-.451-3.587-2.747-5.6-.722-.783,1.434-.414,2.127-.181,2.527,1.145,1.67,4.171,1.593,4.513-.723.222.381,1.087.118,1.263.543a6.433,6.433,0,0,0-.18,3.068c3.093,1.343.479-2.948,2.707-3.43.627.7,1.882.767,3.068.9a2.932,2.932,0,0,0,1.443-3.068,4.17,4.17,0,0,0-1.262-1.084M7.894,14.9a2.177,2.177,0,0,1,1.624-.541c.268,1.349-.719,1.447-1.263,1.986-.831-.068.059-1.32-.361-1.445m.542,4.694c-.969.041-.078-1.108-.361-1.987.828-.195,1.382-.663,2.166-.9-.032.451.4.437.541.722a4.465,4.465,0,0,0-2.346,2.166" fill="#fff" fill-rule="evenodd"/>
    <path id="パス_206" data-name="パス 206" d="M22.593,22.751a1.617,1.617,0,0,1,.361-1.444,1.329,1.329,0,0,1,1.986,1.444,1.417,1.417,0,0,1-2.347,0" fill="#fff" fill-rule="evenodd"/>
    <path id="パス_207" data-name="パス 207" d="M26.826,14.809c-1.573-1.581-2.594-4.27-1.083-6.5,1.716.648.8,4.667,1.083,6.5" fill="#fff" fill-rule="evenodd"/>
    <path id="パス_208" data-name="パス 208" d="M10.943,10.3a6.554,6.554,0,0,0,3.046-.271c.587-.252.768-1.422.259-2.285C13.513,6.5,10.322,7.123,10.761,4.7c.173-.309.6-.364.723-.721,2.5.556,5.381,1.9,5.234,4.511a5.033,5.033,0,0,1-1.121,2c-.94,1.2-4.522,1.843-4.654-.194" fill="#fff" fill-rule="evenodd"/>
    <path id="パス_209" data-name="パス 209" d="M43.424,29.756a20.441,20.441,0,0,1,2.165-.541c.049-1.132-1.878-.288-2.165-1.084.129-.652.956-.608,1.443-.9a4.266,4.266,0,0,0,1.805,1.264,2.2,2.2,0,0,0-1.984-2.887c-.2.653-1.819,1.369-2.348.54.788-1.62,4.328-.485,4.513-2.707-2.006.1-4.366.808-6.137.542,1.485-.673,3.526-.638,3.972-1.986,1.093-3.315-8.008-4.107-9.206-1.444.342.44,1.052.512,1.444.9-.573,2.236-1.316,4.118-1.083,6.136.213,1.836.878,5.024,2.888,4.513-1.448-2.177-1.248-4.634-1.084-7.4.939-.366,1.578-.957,2.709-.362-.732.412-1.858.429-1.987,1.444.7.541,1.7-.25,2.347.18a1.581,1.581,0,0,0,0,2.348c.7.022,1.663-.22,1.444.721-.638.01-3.157-.425-3.069.9.834.672,3.621-.613,3.61.9-1.652.266-2.754-.524-3.249,1.082,2.229.577,6.354.356,7.4-1.8-1.29-.355-3.1.723-3.429-.361M38,22.521c-.119-.714.476-.721.359-1.434,1.626.148,3.3-.811,5.054-.178.073.43-.329.388-.18.894-1.856.393-3.768.5-5.233.718" fill="#fff"/>
    <path id="パス_210" data-name="パス 210" d="M5.528,26.541c.562-.031,1.51-.8,1.805,0,.794,2.532.06,5.216,2.887,6.5,3.187,1.443,9.652,1.128,14.8.9,3.091-.135,6.68-.594,9.073-.693-.183-.659-1.251-1.792-1.672-2.916-1.445-.421-3.074.063-4.152-1.444.107-1.036,2.391-.588,2.889-1.444-.462-5.927,1.9-10.133,6.857-11.191-.1-2.75.116-5.434-.18-7.58-.526-3.819-2.305-5.846-6.316-6.137a123.169,123.169,0,0,0-18.23.361A16.352,16.352,0,0,0,8.416,4.16C7.072,5.343,7.975,8.841,6.25,9.394c-2.518-.757-1.288-4.412-.542-5.6C8.644-.852,21.866-.013,28.81.189,33.539.327,36.971,1.3,38.738,3.8,40.466,6.915,40.069,11.476,40,16.072c5.2.048,10.068,3.44,10.829,8.3.492,3.142-.581,7.051-2.165,8.662-.25.254-.8.788-.932.911A5.134,5.134,0,0,1,45.416,35.2a12.871,12.871,0,0,1-4.873.542c-1.316-.069-2.743-.819-4.331-.9-1.687-.088-3.518.544-5.415.722a105.809,105.809,0,0,1-17.147.36,12.725,12.725,0,0,1-7.04-3.249c-.6-1.695-1.841-3.676-1.082-6.135m27.8,3.068c.723,1.021,1.71,1.781,2.347,2.888,6.918,3.5,13.845.463,13.537-6.859-.2-4.631-5.155-9.383-10.651-8.123-4.009.922-6.7,4.9-5.955,9.748a22.23,22.23,0,0,1-2.166,1.624,6.5,6.5,0,0,0,2.888.722" fill="#fff" fill-rule="evenodd"/>
    <path id="パス_211" data-name="パス 211" d="M21.049,32.5c-.028-.691.738-.587,1.084-.9-.126-.417-.137-.768-.362-1.443a6,6,0,0,0-2.166.181c-.214,1.238.389,1.657.723,2.345-.346.729-2.4.793-2.707,0-.186-.847.842-.48.722-1.262a5.564,5.564,0,0,0,0-1.212c-4.294-1.241-7.961-3.521-9.025-7.993,1.636-.061,3.159.668,4.694.179,1.428-.453,2.149-1.87,3.249-2.707,3.673-2.8,9.5-2.543,10.648,2.528.707.255,1.925,0,2.345.542a7.028,7.028,0,0,1-1.985,1.262C28,26.854,25.732,29.1,23.046,30.075a9.986,9.986,0,0,0-.011,1.518c.114.73,1.4.286,1.083,1.445-.843.1-2.642.3-3.069-.541m1.445-3.972c1.486-.342,3.806-1.926,4.151-3.067,1.017-3.36-2.166-6.839-5.415-6.138-3.472.752-4.727,5.181-9.023,4.874,1.311,3.16,6,5.319,10.287,4.331" fill="#fff" fill-rule="evenodd"/>
    <path id="パス_212" data-name="パス 212" d="M20.328,16.613c-2.5-1.778-3.082-7.173-1.083-9.746h.9c.838.738-.129,1.773,0,2.888.859,1.1,2.152.737,3.61,1.083a3.673,3.673,0,0,1-3.791,1.084c-.283,1.294.476,2.842.361,4.691" fill="#fff" fill-rule="evenodd"/>
    <path id="パス_213" data-name="パス 213" d="M30.615,17.7a7.611,7.611,0,0,1-1.984-3.249c-.609-2.271-.214-6.269,2.166-6.317,1.042,1.211-.51,2.28-.721,3.609-.373,2.328,1.391,4.233.9,5.957Z" fill="#fff" fill-rule="evenodd"/>
  </g>
</svg>
